# xmcd CD database file
#
# Track frame offsets:
#	150
#	27800
#	82175
#	112740
#	133967
#	175392
#
# Disc length: 2991 seconds
#
# Revision: 0
# Processed by: cddbd v1.5.1PL0 Copyright (c) Steve Scherf et al.
# Submitted via: CDex 1.51
#
DISCID=4a0bad06
DTITLE=Sonny Rollins - What's New?
DYEAR=1962
DGENRE=Jazz
TTITLE0=Don't Stop The Carnival
TTITLE1=If Ever I Would Leave You
TTITLE2=Brownskin Girl
TTITLE3=Bluesongo
TTITLE4=The Night Has A Thousand Eyes
TTITLE5=Jungoso
EXTD=YEAR: 1962
EXTT0=
EXTT1=
EXTT2=
EXTT3=
EXTT4=
EXTT5=
PLAYORDER=
